
        <svg xmlns="http://www.w3.org/2000/svg" xmlns:xlink="http://www.w3.org/1999/xlink" version="1.1" width="3200" height="1092.6538364640214" viewBox="0 0 3200 1092.6538364640214">
			
			<g transform="scale(10) translate(10, 10)">
				<defs id="SvgjsDefs1077"/><g id="SvgjsG1078" featureKey="HKaMnE-0" transform="matrix(0.27396475738697584,0,0,0.27396475738697584,4.9052903763692015,5.9052903763692015)" fill="#fff"><g xmlns="http://www.w3.org/2000/svg"><g><defs><rect id="b" x="8.5" y="8.5" transform="matrix(0.719 -0.6951 0.6951 0.719 -62.0973 146.4242)" width="283" height="283"/></defs><clipPath id="a"><use xmlns:xlink="http://www.w3.org/1999/xlink" xlink:href="#b" overflow="visible"/></clipPath><g style="clip-path: url(#a)"><path d="M67.2,155.9l-59.3-1c-2.3,0-4,1.9-3.9,4c1.4,22.6,7.8,43.7,18.3,62.4c1,1.7,3,2.5,4.8,1.7l57.5-24.6     c3.7-1.6,8.1-1.3,11.5,1.1c4.4,3.2,5.8,9.2,3.6,13.9l-26.7,57c-0.8,1.7-0.2,3.9,1.5,4.9c18.3,11,39.2,18.2,61.7,20.4     c2.2,0.2,4.1-1.5,4.2-3.8l1-59.3C142,190.9,108.9,156.6,67.2,155.9z"/><path d="M144.1,67.2l1-59.3c0-2.3-1.9-4-4-3.9c-22.6,1.4-43.7,7.8-62.4,18.3c-1.7,1-2.5,3-1.7,4.8l24.6,57.5     c1.6,3.7,1.3,8.1-1.1,11.5c-3.2,4.4-9.1,5.8-13.9,3.6L29.7,72.9c-1.7-0.8-3.9-0.2-4.9,1.5c-11,18.3-18.2,39.2-20.4,61.7     c-0.2,2.2,1.5,4.1,3.8,4.2l59.3,1C109.1,142,143.4,108.9,144.1,67.2z"/><path d="M232.8,144.1l59.3,1c2.3,0,4-1.9,3.9-4c-1.4-22.6-7.8-43.7-18.3-62.4c-1-1.7-3-2.5-4.8-1.7l-57.5,24.6     c-3.7,1.6-8.1,1.3-11.5-1.1c-4.4-3.2-5.8-9.1-3.6-13.9L227,29.8c0.8-1.7,0.2-3.9-1.5-4.9c-18.2-11.1-39.2-18.3-61.7-20.4     c-2.2-0.2-4.1,1.5-4.2,3.8l-1,59.3C158,109.1,191.1,143.4,232.8,144.1z"/><path d="M198.2,215.1c-2.1-4.9-0.6-10.7,4.1-13.8c3.4-2.4,7.8-2.5,11.5-0.7l56.6,26.5c1.7,0.8,3.9,0.2,4.9-1.5     c11-18.3,18.2-39.2,20.3-61.7c0.2-2.2-1.5-4.1-3.8-4.2l-59.3-1c-41.7-0.7-76,32.4-76.7,74.1l-1,59.3c0,2.3,1.9,4,4,3.9     c22.6-1.4,43.7-7.8,62.4-18.3c1.7-1,2.5-3,1.7-4.8L198.2,215.1z"/></g></g></g></g><g id="SvgjsG1079" featureKey="J3GnXt-0" transform="matrix(5.420054536734968,0,0,5.420054536734968,92.62872510638509,-20.43631217788937)" fill="#fff"><path d="M6.04 10.28 c0.33334 0 0.6 0.04 0.8 0.12 l-0.08 1.94 c-0.34666 -0.09334 -0.64666 -0.14 -0.9 -0.14 c-1.77334 0 -2.67334 0.98666 -2.7 2.96 l0 4.84 l-1.8 0 l0 -9.48 l1.8 0 l0 1.46 l0.04 0 c0.24 -0.50666 0.62666 -0.91666 1.16 -1.23 s1.09334 -0.47 1.68 -0.47 z M12.56 10.28 c1.2 0 2.15 0.273282 2.85 0.819942 s1.07 1.30666 1.11 2.28 l0 5.08 c0 0.48 0.02666 0.99334 0.08 1.54 l-1.6 0 c-0.04 -0.42666 -0.06 -0.90666 -0.06 -1.44 l-0.04 0 c-0.41334 0.61334 -0.89 1.04668 -1.43 1.30002 s-1.17 0.38 -1.89 0.38 c-0.97334 0 -1.76334 -0.26 -2.37 -0.78 s-0.91 -1.20666 -0.91 -2.06 c0 -1.08 0.45334 -1.89666 1.36 -2.45 s2.18666 -0.83 3.84 -0.83 l1.34 0 l0 -0.34 c0 -0.64 -0.21 -1.14334 -0.63 -1.51 s-0.97 -0.55 -1.65 -0.55 c-0.50666 0 -0.95 0.07666 -1.33 0.23 s-0.83 0.43668 -1.35 0.85002 l-1.08 -1.12 c1.02666 -0.90666 2.28 -1.37332 3.76 -1.39998 z M10.1 17.25994 c0 1.02666 0.68002 1.54 2.04002 1.54 c0.81334 0 1.46334 -0.24334 1.95 -0.73 s0.73666 -1.19 0.75 -2.11 l0 -0.52 l-1.02 0 c-1.17334 0 -2.08668 0.15 -2.74002 0.45 s-0.98 0.75666 -0.98 1.37 z M20.18 5.8 c0.36 0 0.67002 0.13002 0.93002 0.39002 s0.39 0.57 0.39 0.93 c0 0.37334 -0.13334 0.68668 -0.4 0.94002 s-0.57332 0.38 -0.91998 0.38 c-0.37334 0 -0.68668 -0.12666 -0.94002 -0.38 s-0.38 -0.56668 -0.38 -0.94002 s0.13334 -0.68668 0.4 -0.94002 s0.57332 -0.38 0.91998 -0.38 z M21.08002 10.52002 l0 9.48 l-1.8 0 l0 -9.48 l1.8 0 z M28.7 10.28 c1.37334 0 2.36 0.58666 2.96 1.76 c0.30666 -0.56 0.72666 -0.99334 1.26 -1.3 s1.11334 -0.46 1.74 -0.46 c2.38666 0 3.58666 1.37334 3.6 4.12 l0 5.6 l-1.8 0 l0 -5.38 c0 -0.93334 -0.16666 -1.61 -0.5 -2.03 s-0.84668 -0.63 -1.54002 -0.63 c-0.81334 0 -1.42 0.24666 -1.82 0.74 s-0.6 1.17334 -0.6 2.04 l0 5.26 l-1.8 0 l0 -5.1 c0 -1.12 -0.16 -1.89 -0.48 -2.31 s-0.82666 -0.63 -1.52 -0.63 c-0.74666 0 -1.34332 0.28666 -1.78998 0.86 s-0.67 1.3 -0.67 2.18 l0 5 l-1.8 0 l0 -9.48 l1.68 0 l0 1.48 l0.04 0 c0.2 -0.46666 0.59666 -0.87 1.19 -1.21 s1.21 -0.51 1.85 -0.51 z"/></g>
			</g>
		</svg>
	